<svg version="1.2" xmlns="http://www.w3.org/2000/svg" viewBox="0 0 1024 1024" width="1024" height="1024">
	<style>
		.s0 { fill: #121212 } 
	</style>
	<g id="Layer 1">
		<g id="Background">
			<path id="Path 1" fill-rule="evenodd" class="s0" d="m501.73 308.52l-107.73 107.98-202-202c0 358.27 0.35 438.41 0.96 438.25 0.52-0.14 9.41-8.38 19.75-18.32 10.33-9.94 26.66-25.62 36.29-34.84l17.5-16.77 1-181.86 128.67 127.54 213.84-214-0.54-113.97zm61.53 69.74l-25.21 25.25c19.72 9.51 30.82 16.04 37.39 20.64 6.58 4.59 16.05 12.41 21.07 17.36 5.01 4.95 11.89 12.71 15.3 17.25l6.18 8.25c49.99-24.96 64.73-32.38 65-32.6 0.28-0.21-1.12-2.75-3.09-5.64-1.98-2.9-6.37-8.75-9.75-13.01-3.39-4.27-9.19-10.97-12.91-14.89-3.71-3.93-11.02-10.74-16.25-15.14-5.22-4.4-14.45-11.25-20.5-15.23-6.05-3.97-15.61-9.54-21.25-12.36-5.63-2.82-10.36-5.13-10.5-5.13-0.15 0-11.61 11.36-25.48 25.25zm-250.59 186.02l-33.82 33.23c4.57 17.82 7.59 27.5 9.65 33 2.06 5.5 5.55 13.6 7.76 18 2.21 4.4 6.53 12.05 9.6 17 3.07 4.95 9 13.27 13.17 18.5 4.17 5.22 11.38 13.33 16.02 18.02 4.64 4.69 12.72 11.82 17.94 15.85 5.23 4.04 13.55 9.84 18.5 12.9 4.95 3.06 13.5 7.72 19 10.36 5.5 2.63 14.73 6.54 20.5 8.7 5.78 2.15 15.23 5.08 21 6.52 5.78 1.43 14.55 3.35 19.5 4.25 5.75 1.05 16.95 1.81 31 2.12 16.92 0.36 24.89 0.09 34.5-1.17 6.88-0.9 17.9-2.94 24.5-4.53 6.6-1.59 16.73-4.52 22.5-6.52 5.78-2 16.13-6.34 23-9.64 6.88-3.31 17-8.96 22.5-12.57 5.5-3.6 12.93-8.83 16.5-11.63 3.58-2.79 10.93-9.37 16.35-14.62 5.41-5.25 12.67-12.92 16.13-17.04 3.46-4.13 9.72-12.57 13.91-18.75 4.19-6.19 9.64-15.3 12.11-20.25 3.99-7.98 4.3-9.07 2.75-9.59-0.96-0.32-16.93-5.72-35.5-12l-33.75-11.41c-7.16 12.78-11.6 19.65-14.49 23.5-2.88 3.85-8.11 10.1-11.62 13.9-3.51 3.79-9.83 9.64-14.04 13-4.2 3.35-11.4 8.32-16 11.05-4.59 2.72-12.4 6.69-17.35 8.83-4.95 2.14-13.95 5.16-20 6.72-6.05 1.57-16.85 3.39-24 4.05-9.97 0.93-15.67 0.94-24.5 0.06-6.32-0.64-16.67-2.46-23-4.05-6.32-1.6-15.1-4.42-19.5-6.29-4.4-1.86-11.15-5.22-15-7.46-3.85-2.24-10.6-6.77-15-10.07-4.4-3.29-11.82-10.01-16.5-14.91-4.67-4.91-11.05-12.73-14.18-17.38-3.13-4.65-7.71-12.73-10.19-17.95-2.47-5.23-5.67-13.1-7.1-17.5-1.43-4.4-3.47-12.28-4.54-17.5-1.06-5.23-2.45-15.35-3.07-22.5-0.63-7.15-0.9-16.27-0.61-20.25 0.28-3.99 0.22-7.24-0.14-7.23-0.37 0.01-15.89 14.97-34.49 33.25z"/>
		</g>
	</g>
</svg>