<svg version="1.2" xmlns="http://www.w3.org/2000/svg" viewBox="0 0 1024 1024" width="1440" height="1440">
	<style>
		.s0 { fill: #121212 } 
	</style>
	<g id="Layer 1">
		<g id="Background">
			<path id="Path 1" fill-rule="evenodd" class="s0" d="m616.49 220.16l-181.73 182.16-340.76-340.76c0 604.36 0.59 739.55 1.62 739.29 0.88-0.24 15.88-14.15 33.31-30.91 17.44-16.77 44.99-43.22 61.23-58.78l29.52-28.28 1.68-306.78 217.05 215.15 360.73-361-0.91-192.25zm103.8 117.63l-42.53 42.6c33.26 16.05 51.99 27.06 63.08 34.81 11.09 7.76 27.08 20.94 35.53 29.29 8.45 8.35 20.07 21.44 25.81 29.1l10.44 13.92c84.32-42.11 109.18-54.63 109.65-54.99 0.46-0.35-1.89-4.64-5.23-9.52-3.34-4.88-10.74-14.76-16.45-21.95-5.71-7.19-15.5-18.49-21.76-25.11-6.26-6.63-18.6-18.12-27.41-25.54-8.82-7.42-24.38-18.98-34.59-25.69-10.2-6.7-26.33-16.09-35.84-20.85-9.51-4.76-17.49-8.66-17.73-8.66-0.24 0-19.57 19.17-42.97 42.59zm-422.72 313.81l-57.06 56.05c7.72 30.07 12.8 46.39 16.28 55.66 3.48 9.28 9.37 22.95 13.1 30.37 3.72 7.42 11.01 20.33 16.19 28.68 5.18 8.35 15.18 22.39 22.21 31.2 7.03 8.82 19.2 22.5 27.03 30.41 7.83 7.91 21.45 19.94 30.27 26.74 8.81 6.8 22.86 16.6 31.21 21.76 8.35 5.17 22.77 13.02 32.05 17.47 9.28 4.44 24.84 11.04 34.58 14.67 9.74 3.63 25.68 8.58 35.42 11 9.75 2.43 24.55 5.65 32.9 7.18 9.7 1.76 28.58 3.05 52.29 3.57 28.54 0.62 41.99 0.16 58.2-1.97 11.6-1.53 30.2-4.96 41.33-7.64 11.13-2.68 28.21-7.63 37.95-11 9.75-3.37 27.21-10.69 38.8-16.27 11.6-5.58 28.68-15.11 37.96-21.19 9.28-6.08 21.8-14.91 27.83-19.62 6.03-4.71 18.44-15.81 27.58-24.67 9.13-8.85 21.38-21.79 27.21-28.75 5.83-6.96 16.39-21.19 23.45-31.63 7.07-10.44 16.27-25.81 20.45-34.16 6.72-13.45 7.25-15.29 4.63-16.17-1.62-0.55-28.57-9.66-59.88-20.24l-56.93-19.26c-12.09 21.57-19.58 33.15-24.45 39.65-4.86 6.49-13.69 17.04-19.61 23.44-5.92 6.4-16.57 16.27-23.67 21.93-7.1 5.66-19.25 14.05-26.99 18.64-7.75 4.59-20.92 11.3-29.27 14.9-8.35 3.61-23.53 8.71-33.74 11.35-10.2 2.63-28.42 5.7-40.48 6.83-16.83 1.56-26.45 1.59-41.33 0.09-10.67-1.07-28.13-4.14-38.8-6.83-10.67-2.69-25.47-7.46-32.9-10.6-7.42-3.15-18.8-8.81-25.3-12.59-6.49-3.78-17.88-11.42-25.3-16.98-7.43-5.57-19.95-16.89-27.84-25.17-7.88-8.28-18.65-21.47-23.93-29.31-5.27-7.84-13-21.47-17.18-30.29-4.18-8.81-9.57-22.09-11.98-29.52-2.41-7.42-5.85-20.7-7.65-29.52-1.8-8.81-4.14-25.89-5.19-37.95-1.05-12.06-1.52-27.44-1.03-34.16 0.48-6.73 0.37-12.21-0.24-12.19-0.61 0.02-26.79 25.26-58.17 56.09z"/>
		</g>
	</g>
</svg>